<svg xmlns="http://www.w3.org/2000/svg" viewBox="0 0 300 300" role="img" aria-labelledby="title desc">
  <title id="title">Prison Watch mugshot demo</title>
  <desc id="desc">Grayscale dossier-style portrait for demo card.</desc>
  <rect width="300" height="300" fill="#d9d9d9"/>
  <rect x="18" y="18" width="264" height="264" fill="#c4c4c4" stroke="#1a1a1a" stroke-width="2"/>
  <line x1="18" y1="96" x2="282" y2="96" stroke="#8e8e8e" stroke-width="1"/>
  <line x1="18" y1="150" x2="282" y2="150" stroke="#8e8e8e" stroke-width="1"/>
  <line x1="18" y1="204" x2="282" y2="204" stroke="#8e8e8e" stroke-width="1"/>
  <ellipse cx="150" cy="110" rx="46" ry="56" fill="#787878"/>
  <path d="M100 96c12-30 34-44 50-44 17 0 39 14 50 44" fill="#5f5f5f"/>
  <rect x="126" y="132" width="48" height="8" rx="4" fill="#666"/>
  <circle cx="132" cy="110" r="5" fill="#2f2f2f"/>
  <circle cx="168" cy="110" r="5" fill="#2f2f2f"/>
  <path d="M136 124c10 7 18 7 28 0" fill="none" stroke="#2f2f2f" stroke-width="3" stroke-linecap="round"/>
  <path d="M78 244c12-44 42-72 72-72s60 28 72 72" fill="#8b8b8b"/>
  <rect x="84" y="210" width="132" height="46" fill="#efefef" stroke="#1a1a1a" stroke-width="2"/>
  <text x="150" y="229" text-anchor="middle" font-family="Courier New, monospace" font-size="12" font-weight="700" fill="#1a1a1a">PW-2026-07</text>
  <text x="150" y="245" text-anchor="middle" font-family="Courier New, monospace" font-size="10" fill="#1a1a1a">ALEX MERCER</text>
</svg>
